<svg t="1764686730957" class="icon" viewBox="0 0 1042 1024" version="1.1" xmlns="http://www.w3.org/2000/svg" p-id="8493" width="200" height="200"><path d="M912.457143 420.571429h5.485714c20.114286 0 36.571429-16.457143 36.571429-36.571429s-16.457143-36.571429-34.742857-36.571429c-54.857143-1.828571-96.914286-45.714286-96.914286-100.571428s42.057143-98.742857 96.914286-100.571429c20.114286 0 34.742857-16.457143 34.742857-36.571428s-16.457143-36.571429-36.571429-36.571429H250.514286c-95.085714 0-173.714286 78.628571-173.714286 173.714286 0 54.857143 25.6 102.4 64 135.314286a163.712 163.712 0 0 0 0 259.657142c-38.4 31.085714-64 80.457143-64 135.314286 0 95.085714 78.628571 173.714286 173.714286 173.714286h667.428571c20.114286 0 36.571429-16.457143 36.571429-36.571429s-16.457143-36.571429-34.742857-36.571428c-54.857143-1.828571-96.914286-45.714286-96.914286-100.571429s42.057143-98.742857 96.914286-100.571428c20.114286 0 34.742857-16.457143 34.742857-36.571429s-16.457143-36.571429-36.571429-36.571429h-5.485714c-51.2 0-91.428571-40.228571-91.428572-91.428571s42.057143-91.428571 91.428572-91.428571zM250.514286 603.428571h-9.142857c-51.2 0-91.428571-40.228571-91.428572-91.428571s40.228571-91.428571 91.428572-91.428571h533.942857c-18.285714 25.6-27.428571 58.514286-27.428572 91.428571 0 32.914286 10.971429 65.828571 27.428572 91.428571H250.514286z" fill="#3cc51f" p-id="8494"></path></svg>

